<svg xmlns="http://www.w3.org/2000/svg" viewBox="0 0 454.91 252.6"><defs><style>.cls-1{isolation:isolate;}.cls-2,.cls-3,.cls-4,.cls-5{fill:#8181c6;}.cls-3{opacity:0.75;}.cls-21,.cls-4{opacity:0.5;}.cls-5{opacity:0.2;}.cls-6{fill:#e7f5fe;}.cls-11,.cls-15,.cls-17,.cls-18,.cls-28,.cls-7,.cls-8{fill:none;}.cls-11,.cls-7,.cls-8{stroke:#d2e8f9;}.cls-15,.cls-17,.cls-28,.cls-7,.cls-8{stroke-miterlimit:10;}.cls-8{stroke-dasharray:4.01 4.01;}.cls-9{fill:#f0faff;}.cls-10{fill:#b5ddf7;}.cls-11,.cls-18{stroke-linecap:round;stroke-linejoin:round;}.cls-12{fill:#26387a;}.cls-13{fill:#ffb288;}.cls-14{fill:#667eea;}.cls-15{stroke:#0061a6;}.cls-15,.cls-17,.cls-28{stroke-width:0.5px;}.cls-16{fill:#d9f0ff;}.cls-17{stroke:#94c1f2;}.cls-18{stroke:#b4e8fd;stroke-width:5px;}.cls-19,.cls-21{fill:#fdae2b;}.cls-20{fill:#ef8417;}.cls-21{mix-blend-mode:multiply;}.cls-22{fill:#ffc840;}.cls-23{fill:#0061a6;}.cls-24{fill:#ef9467;}.cls-25{fill:#e2e8ed;}.cls-26{fill:#b6e9fe;}.cls-27{fill:#2858ad;}.cls-28{stroke:#6cb1ef;}.cls-29{font-size:16.81px;fill:#94c1f2;font-family:OpenSans-Semibold, Open Sans;font-weight:700;letter-spacing:-0.03em;}</style></defs><title>error</title><g class="cls-1"><g id="Layer_1" data-name="Layer 1"><circle class="cls-2" cx="224.4" cy="251.31" r="1.29"/><path class="cls-3" d="M75.52,150a1.29,1.29,0,1,1-1.29-1.29A1.29,1.29,0,0,1,75.52,150Z" transform="translate(155.7 101.31)"/><path class="cls-4" d="M81.06,150a1.29,1.29,0,1,1-1.29-1.29A1.29,1.29,0,0,1,81.06,150Z" transform="translate(155.7 101.31)"/><circle class="cls-5" cx="241.01" cy="251.31" r="1.29"/><path class="cls-6" d="M272.06,120.05c-2.7-5.15-13.68-9.29-18.59-10.23-26.22-5-53.68-4.3-80.24-4.22-28.92.09-56.51,4.72-85.2,6.87-14.92,1.11-30.68-.89-45.63-1.41q-36.93-1.29-73.84-3c-21.22-1-43.24,1.23-62,12.93-2.13,1.33-4.28,2.94-5.24,5.33-6.08,15,69.69,13.1,79.56,13.36,49.8,1.29,99.63,2,149.43.61,37-1,75.62-.94,112.35-6.16,8.12-1.16,19.17-1.57,26.19-6.35C272.77,125.12,273.33,122.48,272.06,120.05Z" transform="translate(155.7 101.31)"/><path class="cls-7" d="M239.82-84.51c.65,0,1.32,0,2,0" transform="translate(155.7 101.31)"/><path class="cls-8" d="M245.83-84.19c12.91,1.31,28.68,6.76,26.84,17.93-2.94,17.81-82.08,11.24-101,11.43-38,.37-76.43.51-113.7,8.82-9.06,2-22,6.48-21.05,18,.34,4,2.72,7.69,5.75,10.43C53.57-7.71,68.74-6.76,82.82-5,104.11-2.43,205.4-5.91,238.5,5c6.52,2.14,14.67,4.89,14.94,14.21.69,23.68-58.13,22.51-75.77,23-47.09,1.21-94.23.73-141.32-.2C-1.7,41.17-39.88,40.5-77.87,38.05-92,37.13-115.2,36.86-126,26.23c-6-5.95-6.83-16.76,2.72-22.28,6.73-3.89,26.47-2.19,34.07-2.84,23-2,16-15.92-2.59-17.7" transform="translate(155.7 101.31)"/><path class="cls-7" d="M-93.81-16.73c-.65,0-1.32-.05-2-.05" transform="translate(155.7 101.31)"/><path class="cls-9" d="M241.17-67.19l-6.06-32a2.53,2.53,0,0,0-4.14-1.45L206.24-79.42a2.53,2.53,0,0,0,.82,4.31l30.79,10.78A2.53,2.53,0,0,0,241.17-67.19Z" transform="translate(155.7 101.31)"/><path class="cls-10" d="M236.5-67.68a1.58,1.58,0,0,1-.52-.09l-25.32-8.86a1.6,1.6,0,0,1-1-1.19,1.61,1.61,0,0,1,.52-1.49l20.34-17.5A1.56,1.56,0,0,1,232-97.1a1.56,1.56,0,0,1,1,1.19l5,26.36a1.6,1.6,0,0,1-.52,1.49A1.58,1.58,0,0,1,236.5-67.68ZM212-78.27,236-69.9l-4.72-24.91Z" transform="translate(155.7 101.31)"/><path class="cls-10" d="M225.5-78.44h0a1,1,0,0,1-.59-1.17l2.51-8.81a1.49,1.49,0,0,1,1.92-1h0a1.49,1.49,0,0,1,.89,2L226.7-79A1,1,0,0,1,225.5-78.44Z" transform="translate(155.7 101.31)"/><path class="cls-10" d="M225.69-76a1,1,0,0,1-1.23.59,1,1,0,0,1-.6-1.23,1,1,0,0,1,1.24-.59A1,1,0,0,1,225.69-76Z" transform="translate(155.7 101.31)"/><path class="cls-9" d="M-97.73-27.56l-19.93-9.92a1.73,1.73,0,0,0-2.5,1.65l1.37,22.23a1.73,1.73,0,0,0,2.68,1.33l18.56-12.3A1.73,1.73,0,0,0-97.73-27.56Z" transform="translate(155.7 101.31)"/><path class="cls-10" d="M-99.92-25.22a1,1,0,0,1-.26.24l-15.27,10.12a1.08,1.08,0,0,1-1.07.07,1.1,1.1,0,0,1-.6-.9L-118.25-34a1.08,1.08,0,0,1,.48-1A1.08,1.08,0,0,1-116.7-35l16.4,8.17a1.1,1.1,0,0,1,.6.89A1.14,1.14,0,0,1-99.92-25.22Zm-15.86,9,14.42-9.57-15.49-7.71Z" transform="translate(155.7 101.31)"/><path class="cls-10" d="M-110.31-23.68h0a.65.65,0,0,1-.88-.16l-3.76-5a1,1,0,0,1,.26-1.45h0a1,1,0,0,1,1.43.33l3.15,5.41A.65.65,0,0,1-110.31-23.68Z" transform="translate(155.7 101.31)"/><path class="cls-10" d="M-108.93-22.79a.67.67,0,0,1-.18.92.67.67,0,0,1-.92-.19.67.67,0,0,1,.19-.92A.66.66,0,0,1-108.93-22.79Z" transform="translate(155.7 101.31)"/><circle class="cls-7" cx="71.78" cy="116.91" r="1.66"/><circle class="cls-7" cx="318.21" cy="86.19" r="1.66"/><circle class="cls-7" cx="187.46" cy="39.67" r="1.66"/><circle class="cls-7" cx="185.47" cy="165.92" r="1.66"/><line class="cls-11" x1="224.16" y1="68.17" x2="224.16" y2="71.92"/><line class="cls-11" x1="226.04" y1="70.04" x2="222.28" y2="70.04"/><line class="cls-11" x1="291.57" y1="20.18" x2="291.57" y2="23.94"/><line class="cls-11" x1="293.45" y1="22.06" x2="289.69" y2="22.06"/><line class="cls-11" x1="395.86" y1="121.49" x2="395.86" y2="125.25"/><line class="cls-11" x1="397.74" y1="123.37" x2="393.98" y2="123.37"/><path class="cls-12" d="M102.17,127.55s-7,3-7,4.48c0,.85,9.61-.37,10.19-.95.93-.93-.38-3.4-.38-3.4Z" transform="translate(155.7 101.31)"/><path class="cls-13" d="M101.72,123.38l.45,4.3a1.3,1.3,0,0,0,1.21.77,2,2,0,0,0,1.62-.77l-.34-5.38" transform="translate(155.7 101.31)"/><path class="cls-14" d="M113.93,24.81c2.55,10.24,1.6,15.45-2.12,23.18-2.26,26-3.84,51.87-6.87,77.21l-3.22.18c-7.29-24.67-14-61.55-13.15-95.26" transform="translate(155.7 101.31)"/><path class="cls-15" d="M112.35,28.33a19.38,19.38,0,0,1,1.08,7.59c-.12,3.89-1.7,7.4-2.73,11.09-1.36,4.92-1.47,9.82-1.84,14.86q-.87,11.82-1.78,23.65-1.47,19.29-3,38.58l-.09,1.15" transform="translate(155.7 101.31)"/><path class="cls-12" d="M130.05,128.55s-7,3-7,4.48c0,.85,9.62-.37,10.19-.95.93-.93-.37-3.4-.37-3.4Z" transform="translate(155.7 101.31)"/><path class="cls-13" d="M129.6,124.38l.45,4.3a1.3,1.3,0,0,0,1.21.77,2,2,0,0,0,1.62-.77l-.35-5.38" transform="translate(155.7 101.31)"/><path class="cls-14" d="M137.18,23.94c3.22,10.05,2.62,15.31-.59,23.27-.53,26.08-2.32,53.31-3.68,78.79h-3.3c-8.91-24.13-18.46-61.39-19.83-95.08" transform="translate(155.7 101.31)"/><path class="cls-15" d="M135.59,28.1s3.72,8.73-2.58,21c-.72,11.56-1.1,76.92-1.1,76.92" transform="translate(155.7 101.31)"/><path class="cls-15" d="M126.37,30.87A5.73,5.73,0,0,0,129.1,33a13.73,13.73,0,0,0,3.41.78,24.06,24.06,0,0,0,4.15.21" transform="translate(155.7 101.31)"/><path class="cls-15" d="M126.82,32.5a9.54,9.54,0,0,0,4.27,2.11,22.58,22.58,0,0,0,4.78.45" transform="translate(155.7 101.31)"/><path class="cls-13" d="M99-24.66C87.9-5.31,75.94,12.21,68.84,33.37l-2.11-1.13c.54-19.64,6.9-48.2,15.26-66" transform="translate(155.7 101.31)"/><path class="cls-16" d="M93.59-44.86A29.62,29.62,0,0,0,86.1-41.2a25.48,25.48,0,0,0-8.64,10.43,47.15,47.15,0,0,0-3.72,13.14,34.88,34.88,0,0,0,10,3,53.31,53.31,0,0,0,11,0" transform="translate(155.7 101.31)"/><path class="cls-16" d="M85.3-33.42C84.12-12.5,85,9,85.55,29.38c0,0,7.3,1.94,25,1.94s29.23-5.39,29.23-5.39c-3.42-20.91-6.15-46.58-14.52-63.8,0,0-9.46-10.2-18.79-10.62A12.18,12.18,0,0,0,101-47c-1.32.61-7.37,2.09-7.37,2.09Z" transform="translate(155.7 101.31)"/><path class="cls-17" d="M85.2-31.56c-.46,4-.46,16.44-.46,16.44" transform="translate(155.7 101.31)"/><path class="cls-18" d="M102.83,36c29.62-3.28,42,34.25,48.78,48.82,15.94,34.42,76.09,30.58,103.49,30.58,35.9,0,51.65,12.09,34.9,18.44" transform="translate(155.7 101.31)"/><path class="cls-19" d="M113,37.66c0,15.23-11.53,24.43-21.39,24.43H75.49V13.23H91.65C101.51,13.23,113,22.42,113,37.66Z" transform="translate(155.7 101.31)"/><path class="cls-20" d="M104.71,37.66c0,14.88-8.82,27-19.69,27H67.18V10.7H85C95.89,10.7,104.71,22.77,104.71,37.66Z" transform="translate(155.7 101.31)"/><path class="cls-21" d="M108.66,22.93q-5.79,7.89-11.27,16a2.81,2.81,0,0,0,1.38-.73c0,.41-.64,1.11-.07,1.37s1.17-.41,1.77-.23c.56-.13,1.08-.83,1.49-1.23a2.72,2.72,0,0,0-.25.94c3.93-1.53,7.45-5.2,10.51-8.15A24.58,24.58,0,0,0,108.66,22.93Z" transform="translate(155.7 101.31)"/><ellipse class="cls-22" cx="224.16" cy="138.97" rx="19.69" ry="26.95"/><path class="cls-20" d="M70.1,47.21c0,2.21-1.51,4-3.37,4s-3.38-1.79-3.38-4,1.51-4,3.38-4S70.1,45,70.1,47.21Z" transform="translate(155.7 101.31)"/><path class="cls-20" d="M70.1,28.1c0,2.22-1.51,4-3.37,4s-3.38-1.79-3.38-4,1.51-4,3.38-4S70.1,25.89,70.1,28.1Z" transform="translate(155.7 101.31)"/><path class="cls-13" d="M130.66-18s1.25,12.73-4.44,23.32c-4.87,9.05-14.54,20.77-22.35,27.23L102,32.11c2.72-10.43,11.3-29,11.84-35.91s.4-15,.53-18.87" transform="translate(155.7 101.31)"/><path class="cls-16" d="M106.49-48.49s10.48.72,16.56,5.86c8.68,7.33,10,21.68,10,25-2.62,2.83-8.35,3-12.53,3a14.39,14.39,0,0,1-7.23-2l-.86-15.84" transform="translate(155.7 101.31)"/><path class="cls-13" d="M102.75,30.56A6.7,6.7,0,0,0,99.4,32c-.92.72-2.05,1.92-1.93,2.47s1.63-.53,1.81-.31-2.57,4.39-2,4.7,2.86-3.46,2.86-3.46-2.28,4-1.39,4.12c.73.07,2.76-3.74,2.76-3.74s-1.71,3.41-1.13,3.54,2.17-3.27,2.17-3.27-1.29,2.9-.79,2.95c.25,0,1.52-1.42,2.05-3.17s1.14-3.21.67-4.56" transform="translate(155.7 101.31)"/><line class="cls-17" x1="269.39" y1="70.51" x2="269.39" y2="84.93"/><path class="cls-12" d="M84.77-61.79c0,.62-.08,1.25-.07,1.88a6.71,6.71,0,0,0,1,3.89,4.05,4.05,0,0,0,2.25,1.58c.63.18,1.47.1,1.74-.5a1.59,1.59,0,0,0,.11-.69,18.62,18.62,0,0,0-1.33-6.8" transform="translate(155.7 101.31)"/><path class="cls-13" d="M100.59-60.48c-.9-3.51-3.73-8.41-8.33-7.43a8.42,8.42,0,0,0-6.4,5.34c-1,3.29.63,7.12,2.6,9.81a8.08,8.08,0,0,0,2.72,2.51c2.66,1.38,6.25.25,8.06-2A9.44,9.44,0,0,0,100.59-60.48Z" transform="translate(155.7 101.31)"/><path class="cls-13" d="M94.13-51.32l1.51,5.49-2,1a5,5,0,0,0,4.65,1.63c6.28-.9,8.25-5.26,8.25-5.26L103-48.86,99-55.54" transform="translate(155.7 101.31)"/><path class="cls-12" d="M103.65-64.31A8.84,8.84,0,0,0,99.4-70c-3.72-2.26-9-2.44-12.31.67-1.89,1.77-5.28,8-1.22,9.29,1.26.39,2.56-.38,3.66-1.11l3.36-2.25A2.63,2.63,0,0,1,94.21-64a2,2,0,0,1,1.73,1.39,19.9,19.9,0,0,1,.49,2.32,2.22,2.22,0,0,0,.84,1.41,1,1,0,0,0,1.45-.3,2.47,2.47,0,0,0,0-1.15c0-.39.22-.86.6-.85a.69.69,0,0,1,.38.17c1,.76.66,2.28,1,3.48,0,.16-.28,2.58-.17,2.7C103.67-55.54,104-62.58,103.65-64.31Z" transform="translate(155.7 101.31)"/><path class="cls-13" d="M99-60.86a.87.87,0,0,1,.8-.9,1.68,1.68,0,0,1,1.22.47,2.67,2.67,0,0,1,1,2,3,3,0,0,1-.55,1.68,1.77,1.77,0,0,1-.9.79,1.44,1.44,0,0,1-1.41-.45" transform="translate(155.7 101.31)"/><path class="cls-12" d="M-12.32,127.4s6.74,1.12,6.92,2.61c.11.84-9.45,1.86-10.1,1.36-1-.8.24-3.8.24-3.8Z" transform="translate(155.7 101.31)"/><path class="cls-13" d="M-12.86,123.26l.55,4.27a1.31,1.31,0,0,1-1.1.92,2,2,0,0,1-1.71-.56l-.79-5.32" transform="translate(155.7 101.31)"/><path class="cls-14" d="M-38.07,26.12c-1.2,10.49-1.27,15.53,3.42,22.72C-32.43,59-29,69.37-26.44,79.76c-1.11,12.41,6.66,32.17,10.85,46.28l3-.51C-8.5,100.12-7,61.17-10.65,27.07" transform="translate(155.7 101.31)"/><path class="cls-15" d="M-36.1,40.33s11.6,36.84,11.6,38.84.32,8.87.83,13.33c.94,8.17,8.34,32.24,8.34,32.24" transform="translate(155.7 101.31)"/><polygon class="cls-23" points="140.02 227.92 139.55 226.08 143.45 225.93 143.5 227.63 140.02 227.92"/><path class="cls-12" d="M-64.77,127.61s5.28,3.81,4.81,5.15c-.27.77-8.85-2.41-9.19-3.11-.55-1.12,1.8-3.14,1.8-3.14Z" transform="translate(155.7 101.31)"/><path class="cls-13" d="M-63.48,123.86l-1.33,3.86a1.25,1.25,0,0,1-1.33.33,2,2,0,0,1-1.22-1.2l1.58-4.88" transform="translate(155.7 101.31)"/><path class="cls-14" d="M-60.73,23.94c-3.22,10.05-2.62,15.31.58,23.27.2,9.52.3,19.16.4,28.8-6.78,17-7.86,32.23-7,48.41l3.27,1.21S-44,91.67-40.4,78.24a221.86,221.86,0,0,0,7.07-47.32" transform="translate(155.7 101.31)"/><path class="cls-15" d="M-59.93,26.12s-3.55,10.38,1.1,20.38c0,2.79,1.6,26,1,29.58C-58.16,77.8-61.35,86-63.48,94c-2.35,8.84-2.85,29.67-2.85,29.67" transform="translate(155.7 101.31)"/><polygon class="cls-23" points="88.35 225.72 88.87 223.54 93.06 225.49 92.23 227.36 88.35 225.72"/><path class="cls-24" d="M-6.23-53.72-8.85-56V-60.6c0-.72-1-5-1.86-5s-1.08-1.08-1.52-.64.36,5.32,0,5.68-.83-2.32-1.16-2-.36,2.3-.36,3.31a6.66,6.66,0,0,0,1.6,3.65c.8.8,4.32,4.61,4.32,4.61Z" transform="translate(155.7 101.31)"/><path class="cls-16" d="M-7.54-55.2l-2.2,2.49S-1.07-41.23,1.68-37.39A44.91,44.91,0,0,1-6.5-41.83c-4.08-2.67-8.17-4.09-11-4.09-6,0-2.87,19.8,4.1,22.69,13.21,2,28,.73,30.29-3.91C20.27-34,.9-50.24-7.54-55.2Z" transform="translate(155.7 101.31)"/><path class="cls-17" d="M1.68-37.39s1.65,4.62,4.59,6.13" transform="translate(155.7 101.31)"/><path class="cls-16" d="M-47.84-40.68C-63.59-23-63.35,7.43-63.35,28.11c0,0,11.56,7.89,29.22,7.89s25-4.35,25-4.35c.53-20.95-3.21-30,.25-64.63,0,0-5.64-12.94-8.64-12.94s-14.76-1.16-14.76-1.16Z" transform="translate(155.7 101.31)"/><path class="cls-17" d="M-9.72-22.76s.35-6,1.82-7.52" transform="translate(155.7 101.31)"/><path class="cls-13" d="M-27-60.34c.59-3.57,3.13-8.67,7.8-8.09,2.93.36,5.21,2.38,6.85,4.75,1.41,2,.87,4-1.13,9.13a13.41,13.41,0,0,1-3.08,3.62c-2.54,1.6-6.22.79-8.22-1.33A9.64,9.64,0,0,1-27-60.34Z" transform="translate(155.7 101.31)"/><path class="cls-12" d="M-26.42-60.78c.67-.1,0-.53.3.08.19.39.24.5.63.63s.38.47.69.7c.48.36.9-.13,1.1-.55a4.67,4.67,0,0,0,.28-2.54c-.07-.66-.29-1.7.36-2.16s1.69.17,2.23.33c.84.24,1.67.51,2.5.76a14.68,14.68,0,0,0,6.25.87,6,6,0,0,0,4.65-2.93c1.06-2-1.06-4.74-3.22-4.74a8.58,8.58,0,0,0-1.66.34,1.19,1.19,0,0,1-.62,0c-.47-.14-.68-.67-1-1.08a3.54,3.54,0,0,0-3.58-1.47A28.12,28.12,0,0,0-22-71.17a8.94,8.94,0,0,1-2.31,0,2.47,2.47,0,0,0-2.06,1.35c-.65-.69-2.11,1-2.47,1.43-1.6,1.94-2.11,4.74-2.15,7.2,0,2.15.32,5.27,2.67,6.13,1,.37,1.63.57,1.67-.35A14.07,14.07,0,0,1-27.24-59a1.9,1.9,0,0,1,.88-2" transform="translate(155.7 101.31)"/><path class="cls-13" d="M-18.76-51.81l-.51,5.39,1.78.5a5,5,0,0,1-4,2.84c-6.29.83-10.73-4-10.73-4l2.09-.4,3.18-10" transform="translate(155.7 101.31)"/><path class="cls-13" d="M-25.37-60.82a.87.87,0,0,0-.88-.82,1.64,1.64,0,0,0-1.17.57c-1.76,1.75.45,6,2.18,3.81" transform="translate(155.7 101.31)"/><path class="cls-12" d="M-13.52-54.64c-.28.66-1.4.93-2,1-3,.33-5.41-1.58-8.24-1.93a2,2,0,0,0-1.62.26,2,2,0,0,0-.44,1.5,16.36,16.36,0,0,0,0,2,3.74,3.74,0,0,0,.46,1.64c1.28,2.13,5.54,2.49,7.71,2.36a4.53,4.53,0,0,0,2.46-.74c1-.74,1.19-2,1.55-3.15A6.21,6.21,0,0,0-13.52-54.64Z" transform="translate(155.7 101.31)"/><path class="cls-13" d="M-15.62-52.31a.52.52,0,0,0-.31-.12,30.06,30.06,0,0,1-3.23-.41,1.46,1.46,0,0,0-.55,0,1.14,1.14,0,0,0-.68.9.77.77,0,0,0,.47.87,5.07,5.07,0,0,0,2.07.45,3,3,0,0,0,1.94-.35C-15.62-51.19-15.19-52-15.62-52.31Z" transform="translate(155.7 101.31)"/><path class="cls-18" d="M-28.63,25.77C-63,24-83.07,41.73-97.3,74.08c-18.47,42-44.28,45.34-55.9,45.1" transform="translate(155.7 101.31)"/><path class="cls-19" d="M-41.83,28.57C-40.56,43.76-28.31,52-18.49,51.14L-2.38,49.8-6.44,1.11-22.55,2.45C-32.37,3.27-43.1,13.39-41.83,28.57Z" transform="translate(155.7 101.31)"/><path class="cls-20" d="M-33.53,27.88c1.24,14.84,11,26.13,21.86,25.23L6.11,51.62,1.63-2.1-16.15-.62C-27,.29-34.77,13.05-33.53,27.88Z" transform="translate(155.7 101.31)"/><ellipse class="cls-22" cx="2.6" cy="24.87" rx="19.69" ry="26.95" transform="translate(153.65 101.61) rotate(-4.77)"/><path class="cls-19" d="M1.75,34.52c.19,2.21,1.84,3.87,3.7,3.72s3.21-2.07,3-4.28-1.84-3.86-3.7-3.71S1.57,32.32,1.75,34.52Z" transform="translate(155.7 101.31)"/><path class="cls-19" d="M.16,15.49c.19,2.2,1.84,3.86,3.7,3.71s3.21-2.07,3-4.27-1.84-3.87-3.7-3.72S0,13.28.16,15.49Z" transform="translate(155.7 101.31)"/><path class="cls-25" d="M4.09,18l25.12-2.09a2.8,2.8,0,0,0,2.54-3h0a2.8,2.8,0,0,0-3-2.57L3.62,12.38C1.7,12.54,2.06,18.15,4.09,18Z" transform="translate(155.7 101.31)"/><path class="cls-25" d="M5.67,37l25.13-2.1a2.79,2.79,0,0,0,2.54-3h0a2.8,2.8,0,0,0-3-2.57L5.21,31.41C3.28,31.57,3.65,37.19,5.67,37Z" transform="translate(155.7 101.31)"/><path class="cls-13" d="M-56.23-18S-57.48-5.25-51.79,5.34c4.87,9.05,14.54,20.77,22.36,27.23l1.88-.46c-2.72-10.43-11.31-29-11.84-35.91s-.41-15-.54-18.87" transform="translate(155.7 101.31)"/><path class="cls-16" d="M-32.25-47.08s-11,.64-17.4,5.44c-11,8.29-8.82,30.56-5.63,41.45S-36.7,27-31.74,30.56c.82,0,3.21-.2,3.12-2.07C-31.37,20-39.19-2.34-39.19-2.34L-38-32.47" transform="translate(155.7 101.31)"/><path class="cls-13" d="M-28.32,30.56A6.66,6.66,0,0,1-25,32c.92.72,2,1.92,1.93,2.47s-1.63-.53-1.81-.31,2.58,4.39,2.06,4.7-2.87-3.46-2.87-3.46,2.28,4,1.4,4.12S-27,35.82-27,35.82s1.71,3.41,1.12,3.54-2.17-3.27-2.17-3.27,1.29,2.9.8,2.95c-.25,0-1.53-1.42-2.06-3.17s-1.13-3.21-.66-4.56" transform="translate(155.7 101.31)"/><path class="cls-17" d="M-36.1,6.54c-1.76-5.07-3.09-8.88-3.09-8.88l2.31-25.29" transform="translate(155.7 101.31)"/><path class="cls-17" d="M-57.8-21.48c-.06,6.85.77,15.3,2.52,21.29,1.54,5.24,5.9,11.75,10.57,17.48" transform="translate(155.7 101.31)"/><path class="cls-13" d="M178.36-58.73l1.77-1.21a30.2,30.2,0,0,1,1.28-4.56,10.83,10.83,0,0,1,2.43-3c.43-.29,2.41-1.41,2.91-.91.24.25-.59,2.48-1,2.87s-1.51,2.09-1.34,2.63,1.11-.64,1.34-.86.52-.5.62-.21a8,8,0,0,1-1.61,4,5,5,0,0,1-2.93,1.52L179.11-56" transform="translate(155.7 101.31)"/><path class="cls-12" d="M199.74-71.44a12.51,12.51,0,0,1,5.46,8.25,3.41,3.41,0,0,0,.64,1.65,3.49,3.49,0,0,0,1.21.74,10,10,0,0,1,5.16,5.86c.36,1.07.08,2.6.5,3.52.52,1.13,2.44,1.38,3.47,1.73a8.08,8.08,0,0,1,5.39,7.38,8.06,8.06,0,0,1-5.24,7.48,4.84,4.84,0,0,1,.56,4.08,9.39,9.39,0,0,1-2.15,3.63A20.07,20.07,0,0,1,199-20.63a14.64,14.64,0,0,1-4.94-1,19.56,19.56,0,0,1-4.82-3.08,14.92,14.92,0,0,1-4.57-5.12c-1-2.09-.91-4.83.73-6.45a5,5,0,0,1-5-2.26,7.3,7.3,0,0,1-.83-5.6,13.92,13.92,0,0,1,2.59-5.17,8.06,8.06,0,0,0,1.93-3.55c.29-2.26-1-4.28-1.3-6.52-.51-3.49-.35-6.49,2.64-8.35,1-2.49,2.12-4.41,4.87-5.14A12.07,12.07,0,0,1,199.74-71.44Z" transform="translate(155.7 101.31)"/><path class="cls-26" d="M192.55-44.9c-10-2.61-21.39,1.51-23.94,1.5,3.49-3.49,9.88-11.24,12.09-13.93a2.43,2.43,0,0,0-1.12-2.35S152.22-45.53,155-36.29c2.87,9.64,29.68,4.91,31.82,7.68" transform="translate(155.7 101.31)"/><path class="cls-13" d="M194.5,44.89c0,.82-3.6,18.38-3.86,20.27-.77,5.49,2.13,11,1.85,19.5-.34,10.35-4.74,38.16-5.3,39.39s-3.24.1-3.24.1-7.74-37.3-8.17-52.56c-.36-12.58,1.46-39.79,1.46-39.79" transform="translate(155.7 101.31)"/><path class="cls-12" d="M187.46,124.53a4.47,4.47,0,0,1,.43,1.37c-.06,1.16-.09,1.95-.09,1.95l-.51,0-.17-.94a7.86,7.86,0,0,0-2.7,1.13c-.66.43-4,.39-4.49.12a.67.67,0,0,1-.21-1.07c.19-.22,3.77-1.79,3.77-1.79" transform="translate(155.7 101.31)"/><path class="cls-13" d="M184,124.15c-.29.7-3.13,2.25-2.87,2.46a6.74,6.74,0,0,0,3.74-.4c1.67-.55,2.61-1.17,2.66-1.61l-.32-1.17" transform="translate(155.7 101.31)"/><path class="cls-13" d="M219.33,45.62c0,.82-3,18.48-3.25,20.38-.6,5.51,2.47,10.92,2.45,19.44,0,10.35-3.58,38.28-4.1,39.53s-3.24.2-3.24.2-8.87-37-9.77-52.3c-.74-12.55.26-39.81.26-39.81" transform="translate(155.7 101.31)"/><path class="cls-12" d="M214.72,125.44a4.45,4.45,0,0,1,.47,1.35c0,1.16,0,2,0,2l-.5,0-.2-.94a8.18,8.18,0,0,0-2.67,1.21c-.64.46-4,.52-4.48.27a.68.68,0,0,1-.25-1.07c.19-.22,3.73-1.9,3.73-1.9" transform="translate(155.7 101.31)"/><path class="cls-13" d="M211.19,125.17c-.27.71-3.05,2.34-2.78,2.54a6.58,6.58,0,0,0,3.72-.51c1.64-.6,2.57-1.25,2.61-1.69l-.36-1.16" transform="translate(155.7 101.31)"/><path class="cls-27" d="M210.31.44s7.92,5.2,10.95,17.65c4.07,16.8-1.93,49.69-1.93,49.69a101.28,101.28,0,0,1-25.92,3.51c-13.51-.11-21.51-4.68-21.53-5.49s-2-25.72.73-42.61c3.08-19,10.92-24.07,10.92-24.07" transform="translate(155.7 101.31)"/><path class="cls-26" d="M199.56-45.22c1.23-.46,4.42.66,10.39,2.95,2.62,2.83,3.77,9.05,4.33,14.55C212.73-14.32,211-7,211.84-2.49c.2,1.07,1.18,1.88,1,3.38-.32,3.08-5.38,3.55-15,4.64S179.63,2.26,180.15.9s2.16-2.56,2.42-3.46,1-12.38,0-13.74-3.71-5.28-3.71-9.09c0-5.38,3-7.79,4.89-10.74,3.23-4.92,5.68-8,8.8-8.77C197.55-46.14,199.56-45.22,199.56-45.22Z" transform="translate(155.7 101.31)"/><path class="cls-28" d="M183.4-38.43a7,7,0,0,1-.83,4.23c-.36.59-2.54,2.81-3,4.22" transform="translate(155.7 101.31)"/><path class="cls-13" d="M197.26-51.76c2.62-2.6,3-7.54,1.85-10.88-1.34-3.76-6.7-6.57-10.39-4.22C181.49-62.24,188.83-43.38,197.26-51.76Z" transform="translate(155.7 101.31)"/><path class="cls-13" d="M192.27-52.22l.14,8s-.3,1.79,2.84,1.9c4.31.15,4.31-2.94,4.31-2.94l-2.49-8.28" transform="translate(155.7 101.31)"/><path class="cls-12" d="M195.53-70.41a2.44,2.44,0,0,0-2.75-.06,16.53,16.53,0,0,1-1.54,1.14,9.27,9.27,0,0,1-1.38.34,7.84,7.84,0,0,0-5,4.16c-.88,2-.6,5.25,1.06,6.68a10,10,0,0,1,1.22-5.08,2.22,2.22,0,0,1,1.92-1.28c.91.11,1.4,1.08,2.06,1.71a6.43,6.43,0,0,0,3.72,1.36c1.48.22,2.62.48,3.35,1.93a9.55,9.55,0,0,1,.66,2,13.79,13.79,0,0,1,.46,2.47,6.14,6.14,0,0,0,.16,1.55,3.41,3.41,0,0,0,2.32,1.93c.76.25,2,.49,2.52-.37a8.81,8.81,0,0,0,.88-2.54,11.39,11.39,0,0,0-1.86-7.81c-1.6-2.55-3.87-4.25-5.93-6.37A12.22,12.22,0,0,0,195.53-70.41Z" transform="translate(155.7 101.31)"/><path class="cls-13" d="M197.55-58a1.72,1.72,0,0,1,1.24-1.33c2.05-.31,1.74,2.74,1,3.82-.46.62-1.65,1.44-2.19-.29" transform="translate(155.7 101.31)"/><path class="cls-13" d="M219.26,4.55l-1,2.06s-3.63.86-4,1.5c-.61,1-1.52,2.41-1.52,3.2s.08,4.29,1.07,4.29c.63,0,2.09-2.85,2.39-3.25.71-.93,3.59-1.62,3.59-4.09l1.76-3.71" transform="translate(155.7 101.31)"/><path class="cls-26" d="M199.56-45.33s8.48-2.16,15.1,2c5.15,3.24,18.4,19.41,18.4,28.67,0,6.24-12.39,21.7-12.39,21.7L218.61,5.6s1.2-12.15,4.81-18.85c-2.66-2.65-13-10.9-15.62-13.51" transform="translate(155.7 101.31)"/><path class="cls-28" d="M206.45-27.61C208.3-26,213.18-22,213.18-22" transform="translate(155.7 101.31)"/><path class="cls-6" d="M-43.54-59.64-53.78-67.9s4.6-17-1.49-22.95a33.26,33.26,0,0,0-11.59-6.93c-9.42-3.58-20.68-4.39-29.08,1.19-6.2,4.11-10,11.16-11.65,18.4-1.49,6.38-1.37,13.63,2.62,18.82a20.45,20.45,0,0,0,6.85,5.45c8.11,4.25,29.54,5.85,38.85-.38C-56.7-56-56.92-58.36-55.84-62Z" transform="translate(155.7 101.31)"/><text class="cls-29" transform="translate(52.78 32.01)">Oops!</text></g></g></svg>